<svg width="20" height="14" viewBox="0 0 20 14" fill="none" xmlns="http://www.w3.org/2000/svg">
<path d="M10 2.1875C11.6089 2.18215 13.1866 2.63094 14.5519 3.48226C15.9171 4.33359 17.0143 5.55289 17.7175 7C16.2737 9.94875 13.325 11.8125 10 11.8125C6.675 11.8125 3.72625 9.94875 2.2825 7C2.98567 5.55289 4.08293 4.33359 5.44814 3.48226C6.81336 2.63094 8.39111 2.18215 10 2.1875ZM10 0.4375C5.625 0.4375 1.88875 3.15875 0.375 7C1.88875 10.8412 5.625 13.5625 10 13.5625C14.375 13.5625 18.1112 10.8412 19.625 7C18.1112 3.15875 14.375 0.4375 10 0.4375ZM10 4.8125C10.5802 4.8125 11.1366 5.04297 11.5468 5.4532C11.957 5.86344 12.1875 6.41984 12.1875 7C12.1875 7.58016 11.957 8.13656 11.5468 8.5468C11.1366 8.95703 10.5802 9.1875 10 9.1875C9.41984 9.1875 8.86344 8.95703 8.4532 8.5468C8.04297 8.13656 7.8125 7.58016 7.8125 7C7.8125 6.41984 8.04297 5.86344 8.4532 5.4532C8.86344 5.04297 9.41984 4.8125 10 4.8125ZM10 3.0625C7.83 3.0625 6.0625 4.83 6.0625 7C6.0625 9.17 7.83 10.9375 10 10.9375C12.17 10.9375 13.9375 9.17 13.9375 7C13.9375 4.83 12.17 3.0625 10 3.0625Z" fill="#969696"/>
</svg>
