<svg width="943" height="943" viewBox="0 0 943 943" fill="none" xmlns="http://www.w3.org/2000/svg">
<g clip-path="url(#clip0_288_213)">
<path d="M437.751 789.324L174.859 349.971" stroke="#D9D9D9"/>
<path d="M492.67 756.463L229.779 317.109" stroke="#D9D9D9"/>
<path d="M547.59 723.602L284.698 284.248" stroke="#D9D9D9"/>
<path d="M602.509 690.74L339.617 251.386" stroke="#D9D9D9"/>
<path d="M657.428 657.879L394.536 218.525" stroke="#D9D9D9"/>
<path d="M712.347 625.017L449.456 185.663" stroke="#D9D9D9"/>
<path d="M767.267 592.156L504.375 152.802" stroke="#D9D9D9"/>
<path d="M349.97 767.267L789.324 504.375" stroke="#D9D9D9"/>
<path d="M317.109 712.348L756.463 449.456" stroke="#D9D9D9"/>
<path d="M284.247 657.428L723.601 394.536" stroke="#D9D9D9"/>
<path d="M251.386 602.509L690.74 339.617" stroke="#D9D9D9"/>
<path d="M218.524 547.59L657.878 284.698" stroke="#D9D9D9"/>
<path d="M185.663 492.671L625.017 229.779" stroke="#D9D9D9"/>
<path d="M152.802 437.751L592.155 174.859" stroke="#D9D9D9"/>
<rect x="493.031" y="383.606" width="64.3398" height="64.7983" transform="rotate(-120.89 493.031 383.606)" fill="#DBCAFF" fill-opacity="0.15"/>
<rect x="405.031" y="362.126" width="64.3398" height="64.7983" transform="rotate(-120.89 405.031 362.126)" fill="#61ADD9" fill-opacity="0.15"/>
<rect x="415.031" y="504.126" width="64.3398" height="64.7983" transform="rotate(-120.89 415.031 504.126)" fill="#CEEF4E" fill-opacity="0.15"/>
</g>
<defs>
<clipPath id="clip0_288_213">
<rect width="713.077" height="713.077" fill="white" transform="translate(650.894 942.126) rotate(-155.895)"/>
</clipPath>
</defs>
</svg>
